<svg width="910" height="735" viewBox="0 0 910 735" fill="none" xmlns="http://www.w3.org/2000/svg">
<path d="M858 433.223C858 580.008 756.626 699 486.64 699C204.241 699 167.002 641.654 104.936 601.953C-138.993 445.921 281.544 284.344 486.64 284.344C691.737 284.344 858 143.185 858 433.223Z" fill="#F2B705"/>
<path d="M767.937 415.557C680.117 593.191 524.977 468.425 410.228 468.425C295.48 468.425 12.083 593.191 116.779 350.002C116.779 242.846 -183.097 80.3788 410.228 80.3788C834.599 -106.771 787.476 314.052 767.937 415.557Z" fill="#F2B705"/>
<path d="M292.603 182.811C288.578 186.321 288.339 186.934 288.576 191.661C288.793 194.502 289.547 197.863 290.318 199.198C292.914 204.106 285.612 212.831 279.796 211.799C275.229 210.876 268.305 212.857 261.275 216.915C252.376 222.053 245.163 230.726 239.94 242.64C237.997 247.084 235.127 252.182 233.707 253.832C232.198 255.534 230.641 257.975 230.302 259.238C228.78 263.795 224.652 272.467 223.762 272.981C223.228 273.289 222.116 275.473 221.388 277.911C220.519 280.311 219.103 282.79 218.213 283.303C214.564 285.41 213.326 287.786 213.546 291.455C213.749 294.067 212.631 297.679 210.116 302.571C207.096 308.231 206.719 309.634 208.424 308.887C211.21 307.753 214.905 301.823 216.953 295.302C218.349 290.937 219.16 289.875 221.501 288.998C223.079 288.443 225.279 287.529 226.525 286.809C229.284 285.217 231.369 286.979 230.696 290.334C230.183 292.528 224.732 299.116 218.055 305.225C216.837 306.403 214.976 309.139 213.915 311.412C212.893 313.545 211.589 315.603 211.233 315.808C209.631 316.733 207.578 327.766 208.082 332.339C208.642 337.83 213.96 352.794 217.607 359.112C219.662 362.671 220.365 365.944 221.042 374.926C222.122 391.387 223.219 394.313 235.439 413.835C246.593 431.717 254.737 443.151 260.805 449.14C262.866 451.272 265.24 454.766 266.206 457.056C267.559 460.427 268.545 461.519 271.329 462.641C275.492 464.508 276.108 465.576 275.233 469.403C273.982 474.634 276.022 474.88 284.606 470.636C288.764 468.591 295.076 466.371 298.489 465.706L304.817 464.543L308.239 460.195C314.576 452.265 318.928 445.006 322.725 436.17C330.192 418.689 332.802 412.318 333.643 409.46C334.094 407.775 335.268 405.081 336.14 403.509C338.326 399.281 342.249 398.677 353.792 400.793C362.172 402.361 363.46 402.33 367.197 400.172C372.447 397.141 375.745 390.728 377.039 380.845C378.115 373.461 376.851 370.039 374.031 372.141C359.462 383.282 355.796 384.33 343.688 381.236C333.404 378.631 318.815 371.036 312.135 364.808C298.045 351.706 291.37 340.966 290.274 329.616C289.553 322.201 290.475 317.635 294.355 310.174C296.869 305.282 297.694 304.45 304.368 300.597C311.487 296.487 311.716 296.473 320.079 296.984C324.796 297.345 330.927 297.483 333.819 297.356C340.891 297.069 345.11 299.854 348.148 306.761C353.824 319.264 353.824 319.264 358.093 319.054C361.622 318.796 362.207 318.577 363.891 315.944C364.852 314.321 366.693 312.784 367.864 312.345C368.997 312.047 372.751 310.947 376.047 309.874C381.24 308.182 382.209 308.216 383.606 310.019C386.157 313.411 389.851 315.905 392.196 315.856C393.942 315.797 394.767 314.965 396.077 311.48C396.997 309.169 398.358 305.773 399.128 304.024C402.381 296.095 403.046 291.083 402.071 280.968C401.446 275.159 401.064 269.566 401.201 268.775C401.286 267.895 401.2 265.691 401.09 263.856C401.031 262.11 401.56 257.89 402.412 254.432C403.649 248.972 404.193 248.064 406.853 247.122C410.556 245.933 417.242 236.141 417.425 231.526C417.558 229.907 418.34 225.303 419.202 221.246C420.613 214.855 420.19 208.574 418.084 204.925C417.724 204.302 417.573 201.779 417.74 199.192C417.869 196.744 417.471 193.177 416.953 191.459C413.596 181.533 434.177 175.464 467.077 176.758C489.728 177.562 502.158 181.419 520.654 193.521C538.574 205.243 543.793 209.349 550.391 217.285C558.028 226.401 561.37 229.93 563.643 230.99C568.905 233.528 564.932 214.11 557.496 201.437C553.951 195.297 540.887 180.89 534.07 175.453C532.957 174.553 529.016 171.014 525.216 167.514C521.504 163.962 517.642 160.971 516.621 160.848C515.69 160.674 513.02 159.131 510.705 157.383C508.302 155.686 505.107 153.852 503.526 153.578C501.893 153.216 499.25 152.132 497.664 151.03C496.042 150.069 492.529 148.3 489.797 147.267C487.154 146.183 482.748 144.1 480.026 142.468C477.355 140.925 474.675 139.981 473.963 140.392C472.539 141.214 468.006 139.322 466.979 137.543C466.568 136.831 466.896 136.166 467.673 136.074C468.857 135.865 468.559 134.732 466.467 131.313C463.86 127.004 463.669 126.877 456.963 126.359C451.787 126.025 449.685 126.289 448.022 127.724C444.391 130.888 440.773 131.198 433.563 129.191C428.739 127.823 425.641 127.595 423.581 128.547C421.914 129.153 418.245 129.373 415.503 128.94C412.672 128.557 406.989 128.99 402.851 129.837C392.487 132.024 386.424 133.033 382.296 133.281C380.41 133.302 375.129 135.046 370.741 137.104C362.766 140.759 359.412 143.17 350.454 151.902C348.017 154.258 344.855 156.796 343.342 157.669C341.918 158.491 339.622 160.885 338.408 162.891C335.636 167.338 332.447 169.417 328.965 168.936C327.664 168.738 325.436 169.194 324.19 169.913C322.856 170.683 319.967 171.639 317.687 172.006C315.229 172.476 312.991 173.531 312.18 174.593C309.823 177.496 306.376 179.13 303.175 178.724C298.674 178.119 297.414 178.609 292.603 182.811Z" fill="#141259"/>
<path d="M302.15 311.962C299.515 315.619 296.875 323.787 297.851 325.478C298.827 327.169 301.343 325.36 304.648 320.605C310.461 312.384 319.086 308.828 321.809 313.544C323.556 316.57 330.879 318.156 333.61 316.104C335.769 314.501 335.793 314.132 333.752 310.802C331.145 306.493 326.393 304.016 319.074 303.258C312.916 302.661 306.482 305.902 302.15 311.962Z" fill="#141259"/>
<path d="M516.014 218.98C516.004 219.579 518.391 223.303 521.493 227.444C524.456 231.547 527.74 236.414 528.805 238.053C530.86 241.612 541.036 248.551 543.545 248.17C547.379 247.618 547.302 244.814 543.127 237.377C538.681 229.266 535.086 226.121 524.178 220.792C517.396 217.47 516.044 217.183 516.014 218.98Z" fill="#141259"/>
<path d="M332.323 327.644C326.289 332.195 325.065 334.801 325.458 342.879C325.916 351.276 327.295 352.022 332.408 346.697C334.362 344.738 337.955 341.715 340.47 339.907L345.159 336.725L343.953 343.472C343.181 347.478 343.233 350.651 344.051 351.246C345.215 352.235 349.668 350.495 355.158 346.851C356.263 346.094 358.351 345.6 359.83 345.696C361.22 345.842 362.736 345.797 363.092 345.592C364.16 344.975 361.516 340.807 360.089 340.801C359.349 340.753 357.168 337.385 354.324 331.433L349.669 322.138L347.219 324.264C345.251 325.993 344.704 326.072 344.584 324.837C344.388 323.882 343.453 322.879 342.419 322.527C340.441 321.771 339.818 322.13 332.323 327.644Z" fill="#141259"/>
<path d="M482.644 246.67C481.583 248.943 484.856 251.325 489.242 251.522C491.727 251.511 494.667 250.644 497.959 248.743C503.921 245.301 510.082 243.642 512.089 244.857C513.047 245.49 514.079 248.098 514.823 252.058C515.906 257.839 516.215 258.373 518.423 259.115C519.737 259.543 521.963 261.343 523.36 263.146C529.216 270.206 531.375 268.603 529.941 258.516C528.517 247.829 526.996 243.962 523.377 241.187C519.131 237.943 507.194 236.174 500.766 237.987C493.791 239.878 483.591 244.818 482.644 246.67Z" fill="#141259"/>
<path d="M573.183 261.076C567.687 266.148 569.013 269.06 576.876 268.911C579.871 268.961 582.38 268.58 582.544 268.248C582.568 267.878 581.883 265.664 580.879 263.514C578.741 258.579 576.673 257.874 573.183 261.076Z" fill="#141259"/>
<path d="M577.255 288.268C577.146 289.518 585.291 295.612 586.181 295.098C587.694 294.225 587.744 291.229 586.408 288.916C584.405 285.445 577.291 285.044 577.255 288.268Z" fill="#141259"/>
<path d="M566.414 320.866C563.612 324.027 561.021 326.116 558.858 326.89C556.428 327.819 555.641 328.51 555.901 329.784C556.165 331.885 561.667 333.811 564.888 333.019C566.11 332.669 570.382 333.288 574.452 334.378C581.279 336.132 581.803 336.423 583.156 339.794C584.91 344.477 591.686 349.226 593.575 346.949C596.021 343.994 598.823 337.749 599.544 333.655C600.453 328.859 599.319 326.073 596.515 326.149C595.457 326.166 593.769 324.887 592.615 323.299C591.461 321.711 588.797 318.74 586.698 316.749C583.664 313.755 582.196 313.06 578.985 313.253C573.977 313.415 571.626 314.891 566.414 320.866Z" fill="#141259"/>
<path d="M402.371 417.119C402.109 421.186 405.726 426.217 412.08 430.853C416.312 433.867 416.915 434.706 417.015 437.14C417.057 440.912 418.999 441.808 422.034 439.462C426.466 435.836 433.821 441.793 434.607 449.526C434.834 451.768 435.296 452.569 436.802 453.123C438.309 453.677 438.425 454.084 437.525 455.197C435.257 458.049 438.698 460.927 446.825 462.879C451.125 463.956 454.938 464.601 455.294 464.396C455.739 464.139 458.204 465.326 460.837 467.009C463.381 468.744 466.089 470.147 466.829 470.194C467.428 470.204 469.362 472.528 470.955 475.287C472.548 478.045 475.253 481.704 476.828 483.404C478.993 485.714 479.688 487.33 480.007 490.349C480.279 494.107 480.33 494.196 483.213 494.668C485.304 495.003 486.506 495.851 486.818 497.213C487.401 499.25 491.228 500.125 491.768 498.389C491.881 497.968 493.989 496.277 496.607 494.646C499.136 493.068 503.849 489.516 507.138 486.787C510.642 483.815 515.433 480.811 518.613 479.331C523.778 477.18 536.665 474.841 542.618 475.082C547.143 475.317 561.886 471.67 565.89 469.358C568.559 467.817 570.513 465.858 571.649 463.304C573.821 458.847 572.342 455.667 565.767 450.445C563.35 448.519 560.803 445.956 560.135 444.799C558.696 442.308 559.028 442.472 542.847 440.543C529.585 438.945 519.507 436.696 514.652 434.041C512.608 432.967 509.866 432.533 508.236 432.999C506.645 433.325 501.226 432.775 496.276 431.6C489.323 430.037 486.909 428.939 485.779 426.982C484.032 423.956 483.036 423.464 478.651 423.266C476.713 423.199 474.978 422.658 474.618 422.035C473.745 420.523 459.235 413.476 458.167 414.092C457.633 414.4 456.969 414.072 456.558 413.36C456.147 412.648 453.056 410.993 449.519 409.594C443.812 407.312 443.073 407.265 440.889 409.237C438.757 411.298 438.477 411.223 437.945 409.276C437.479 407.646 436.815 407.318 434.919 407.938C433.608 408.339 431.304 409.076 429.816 409.579C428.238 410.134 424.873 410.06 422.206 409.346C418.098 408.395 416.544 408.581 411.8 410.845C408.761 412.362 405.39 413.715 404.383 413.822C403.058 413.993 402.514 414.901 402.371 417.119Z" fill="#141259"/>
<path d="M543.836 368.072C542.688 373.481 545.331 374.565 558.174 373.794C571.387 373.047 578.734 374.263 585.393 378.605C587.834 380.162 590.926 381.818 592.203 382.385C594.654 383.343 594.654 383.343 595.201 380.18C595.997 375.805 592.788 370.658 588.269 368.995C586.341 368.329 583.353 366.851 581.819 365.838C576.132 362.358 568.95 360.81 563.665 361.726C560.748 362.223 556.442 362.574 554.135 362.482C548.921 362.288 544.599 364.665 543.836 368.072Z" fill="#141259"/>
<path d="M558.665 398.071C559.286 403.051 563.025 407.062 570.42 410.623C572.937 411.899 576.477 414.126 578.179 415.635C580.315 417.486 581.962 418.078 583.4 417.485C585.83 416.557 590.199 410.356 592.316 404.981L593.715 401.445L588.993 397.171C580.33 389.359 572.549 387.8 562.767 392.024C558.099 394.008 558.099 394.008 558.665 398.071Z" fill="#141259"/>
<path d="M448.973 510.165C448.61 511.798 448.289 514.119 448.321 515.406C448.318 517.662 448.229 517.713 445.333 517.012C440.485 516.014 441.483 519.591 448.054 527.069C449.437 528.643 449.382 536.15 448.013 537.889C447.544 538.516 446.055 539.019 444.857 538.999C442.92 538.931 442.081 539.534 440.271 542.359C438.386 545.464 437.548 546.067 432.889 547.451C430 548.407 427.584 549.565 427.396 550.267C426.945 551.951 432.451 557.789 438.806 562.425C441.644 564.465 444.267 566.747 444.627 567.37C445.654 569.15 446.746 568.164 447.939 564.271C448.555 562.255 448.571 560.228 447.945 559.759C447.267 559.202 447.554 557.849 448.885 556.25C451.331 553.295 450.519 551.273 446.5 550.271C444.357 549.847 443.577 549.111 443.672 547.633C443.613 545.887 444.25 545.757 448.793 547.049L454.075 548.389L459.589 544.376C465.458 540.156 479.136 526.446 482.858 520.975C484.771 518.328 484.819 517.588 483.141 515.71C482.052 514.44 481.048 512.291 480.914 510.826C480.79 508.762 479.982 507.567 477.91 506.034C475.404 504.159 474.627 504.252 471.335 506.153C467.686 508.259 467.406 508.184 466.07 505.87C463.861 502.044 459.921 501.59 454.352 504.686C450.652 506.704 449.523 507.83 448.973 510.165Z" fill="#141259"/>
<path d="M463.634 574.193C463.521 574.614 460.944 576.932 457.768 579.241C452.395 583.292 452.105 583.816 450.693 590.207C449.408 596.407 445.779 605.739 441.318 614.247C440.37 616.099 438.728 619.42 437.565 621.516C436.364 623.751 435.711 625.908 435.968 626.353C436.225 626.798 439.011 625.664 442.214 623.815C448.354 620.27 451.841 616.24 451.381 613.183C451.08 611.222 457.029 602.21 459.788 600.617C460.945 599.949 462.118 597.255 462.726 593.582C463.693 587.447 465.992 582.798 468.928 581.103C470.886 579.972 470.217 575.731 467.683 573.398C466.225 572.104 464.174 572.457 463.634 574.193Z" fill="#141259"/>
</svg>
