<svg width="7323" height="4313" viewBox="0 0 7323 4313" fill="none" xmlns="http://www.w3.org/2000/svg">
<rect width="7323" height="4313" fill="#E1EFFF"/>
<path d="M6242.65 2605.59L1609.95 336L1482 514.525L6114.7 2784.11L6242.65 2605.59Z" fill="#F2F2F2"/>
<path d="M5997.02 1788.91L2665.95 157L2538 335.525L5869.07 1967.44L5997.02 1788.91Z" fill="#F2F2F2"/>
<path d="M4396.02 4007.91L1064.95 2376L937 2554.53L4268.07 4186.44L4396.02 4007.91Z" fill="#F2F2F2"/>
<path d="M5520.65 3829.59L887.954 1560L760 1738.53L5392.7 4008.11L5520.65 3829.59Z" fill="#F2F2F2"/>
<path d="M6471.55 3465.17L761.954 668L634 846.525L6343.6 3643.7L6471.55 3465.17Z" fill="#F2F2F2"/>
<path d="M3636.05 947.172C3636.05 947.172 3742.61 1296.13 3763.92 1296.13C3785.24 1296.13 3561.46 1567.54 3561.46 1567.54L3231.12 1732.32L3113.9 1286.43C3113.9 1286.43 3220.46 1044.1 3199.15 918.092L3636.05 947.172Z" fill="#FFB9B9"/>
<path d="M3465.5 1082.84C3683.16 1082.84 3859.61 922.317 3859.61 724.302C3859.61 526.288 3683.16 365.766 3465.5 365.766C3247.84 365.766 3071.39 526.288 3071.39 724.302C3071.39 922.317 3247.84 1082.84 3465.5 1082.84Z" fill="#FFB9B9"/>
<path d="M3412.31 1470.32L3727.29 1221.45L3913.07 1305.53L4317.94 1538.18C4317.94 1538.18 4211.39 3631.97 4264.66 3709.52C4264.66 3709.52 4147.47 3951.86 3454.93 3806.46C2762.39 3661.05 2581.27 3641.67 2581.27 3641.67L2730.43 2362.12L2549.3 1557.56L3157.71 1170.49L3348.38 1470.32L3412.31 1470.32Z" fill="#575A89"/>
<path d="M2368.06 2207.56L2272.09 2614.65V3438.52C2272.09 3438.52 2410.71 3961.93 2517.34 3826.23C2623.97 3690.53 2621.77 3647.56 2621.77 3647.56L2485.35 3457.91L2549.33 2682.5L2719.33 2312.6L2368.06 2207.56Z" fill="#FFB9B9"/>
<path d="M4151.09 2423.54L4264.23 2828.95L4211.79 3644.42L4048.36 3825.98C4048.36 3825.98 4039.76 3870.5 4125.1 4024.43C4210.45 4178.36 4425.91 3649.31 4425.91 3649.31L4548.95 2790.87L4514.69 2355.41L4151.09 2423.54Z" fill="#FFB9B9"/>
<path d="M3092.21 365.713C3092.21 365.713 3220.12 113.521 3465.27 171.719C3710.42 229.917 3848.98 317.215 3859.64 404.512C3870.3 491.809 3854.31 622.755 3854.31 622.755C3854.31 622.755 3827.66 443.311 3657.13 482.11C3486.59 520.908 3220.12 491.809 3220.12 491.809L3177.48 840.999C3177.48 840.999 3129.52 777.951 3076.23 816.749C3022.93 855.548 2921.67 443.311 3092.21 365.713Z" fill="#2F2E41"/>
<path d="M2793.92 1538.01L2549.07 1557.4C2549.07 1557.4 2272.29 2245.83 2304.22 2265.23C2336.16 2284.62 2719.4 2400.97 2772.62 2371.89C2825.85 2342.8 2793.92 1538.01 2793.92 1538.01Z" fill="#575A89"/>
<path d="M4232.01 1557.4L4317.29 1538.01C4317.29 1538.01 4477.2 1722.26 4530.5 1935.61C4583.8 2148.96 4658.42 2362.32 4615.78 2362.32C4573.14 2362.32 4057.35 2488.47 4057.35 2488.47L4232.01 1557.4Z" fill="#575A89"/>
</svg>
