<svg width="486" height="498" viewBox="0 0 486 498" fill="none" xmlns="http://www.w3.org/2000/svg">
<g clip-path="url(#clip0)">
<path d="M380.439 69.5901C384.263 72.9163 384.48 73.5049 384.127 78.0809C383.843 80.8324 383.022 84.096 382.238 85.4C379.585 90.1908 386.463 98.5044 392.148 97.4075C396.615 96.4374 403.3 98.2353 410.034 102.041C418.558 106.858 425.351 115.124 430.124 126.558C431.899 130.822 434.56 135.704 435.898 137.276C437.323 138.896 438.774 141.231 439.07 142.447C440.433 146.828 444.226 155.145 445.078 155.626C445.59 155.915 446.615 158.009 447.26 160.354C448.043 162.66 449.357 165.034 450.209 165.515C453.704 167.491 454.848 169.767 454.538 173.32C454.274 175.85 455.268 179.324 457.588 184.012C460.38 189.435 460.71 190.786 459.071 190.092C456.39 189.043 452.948 183.371 451.124 177.098C449.88 172.9 449.118 171.888 446.863 171.079C445.343 170.569 443.225 169.722 442.032 169.048C439.39 167.554 437.316 169.294 437.884 172.527C438.326 174.641 443.458 180.919 449.796 186.714C450.95 187.833 452.69 190.447 453.663 192.627C454.603 194.673 455.818 196.641 456.159 196.833C457.693 197.701 459.406 208.336 458.797 212.768C458.11 218.087 452.55 232.65 448.838 238.823C446.747 242.3 445.979 245.477 445.088 254.175C443.611 270.114 442.469 272.963 430.076 292.051C418.762 309.535 410.544 320.732 404.486 326.627C402.426 328.724 400.026 332.144 399.027 334.375C397.624 337.658 396.636 338.731 393.899 339.863C389.801 341.74 389.174 342.783 389.926 346.47C391.008 351.508 389.017 351.78 380.776 347.822C376.783 345.915 370.701 343.875 367.398 343.29L361.271 342.273L358.055 338.126C352.095 330.564 348.049 323.618 344.584 315.137C337.771 298.357 335.397 292.24 334.653 289.489C334.257 287.868 333.185 285.282 332.377 283.777C330.36 279.725 326.56 279.208 315.275 281.45C307.082 283.109 305.83 283.101 302.25 281.078C297.221 278.235 294.179 272.09 293.175 262.553C292.32 255.43 293.638 252.099 296.327 254.084C310.212 264.611 313.751 265.562 325.611 262.364C335.683 259.67 350.071 252.077 356.731 245.94C370.777 233.028 377.549 222.528 378.908 211.531C379.802 204.348 379.022 199.947 375.441 192.798C373.121 188.109 372.34 187.319 365.947 183.706C359.128 179.852 358.906 179.842 350.757 180.479C346.158 180.908 340.19 181.146 337.38 181.072C330.507 180.915 326.332 183.681 323.197 190.412C317.352 202.601 317.352 202.601 313.205 202.47C309.778 202.281 309.214 202.079 307.645 199.561C306.752 198.008 305 196.552 303.873 196.148C302.778 195.879 299.154 194.879 295.975 193.897C290.968 192.349 290.024 192.398 288.618 194.166C286.049 197.489 282.39 199.965 280.11 199.957C278.413 199.93 277.633 199.139 276.448 195.791C275.613 193.572 274.377 190.31 273.673 188.631C270.714 181.018 270.195 176.183 271.406 166.383C272.164 160.755 272.68 155.339 272.567 154.576C272.507 153.727 272.648 151.594 272.803 149.817C272.905 148.128 272.499 144.055 271.761 140.725C270.698 135.465 270.192 134.597 267.629 133.731C264.057 132.644 257.806 123.287 257.747 118.828C257.66 117.264 257.018 112.824 256.285 108.915C255.077 102.758 255.651 96.6759 257.794 93.1116C258.16 92.5031 258.373 90.0606 258.277 87.5605C258.215 85.1956 258.694 81.7393 259.242 80.0687C262.765 70.4118 242.9 64.8922 210.86 66.7029C188.804 67.8657 176.611 71.8076 158.305 83.8262C140.569 95.4676 135.386 99.5275 128.761 107.315C121.096 116.262 117.754 119.731 115.515 120.795C110.33 123.34 114.698 104.492 122.259 92.1087C125.866 86.1102 138.948 71.9543 145.721 66.5799C146.826 65.6906 150.752 62.2016 154.54 58.7514C158.243 55.253 162.077 52.295 163.073 52.1588C163.983 51.9744 166.621 50.4367 168.918 48.7063C171.3 47.0241 174.455 45.1963 176.001 44.905C177.599 44.5268 180.198 43.4332 181.769 42.3407C183.373 41.3834 186.836 39.6131 189.52 38.5677C192.119 37.4741 196.46 35.3843 199.15 33.7597C201.788 32.222 204.42 31.2635 205.102 31.6489C206.466 32.4197 210.924 30.5133 211.97 28.7746C212.388 28.0791 212.086 27.4423 211.332 27.3659C210.186 27.1837 210.505 26.0829 212.629 22.7407C215.276 18.529 215.466 18.4033 222.003 17.7882C227.047 17.3773 229.085 17.5971 230.666 18.9565C234.116 21.9549 237.628 22.1925 244.694 20.1288C249.422 18.724 252.442 18.4504 254.421 19.3364C256.027 19.8946 259.591 20.0452 262.27 19.5789C265.034 19.1609 270.551 19.4831 274.555 20.2318C284.581 22.1709 290.453 23.043 294.462 23.2125C296.297 23.2009 301.389 24.7978 305.605 26.7142C313.268 30.1135 316.469 32.3882 324.958 40.6808C327.268 42.9178 330.278 45.3182 331.728 46.1372C333.091 46.908 335.263 49.1838 336.393 51.1035C338.974 55.3578 342.023 57.3141 345.423 56.7891C346.693 56.5754 348.849 56.9785 350.043 57.653C351.321 58.3756 354.107 59.251 356.315 59.5672C358.694 59.9797 360.844 60.962 361.605 61.9748C363.824 64.7428 367.135 66.2645 370.259 65.8171C374.654 65.1559 375.867 65.6083 380.439 69.5901Z" fill="black"/>
<path d="M368.06 194.913C370.529 198.407 372.888 206.266 371.894 207.919C370.9 209.571 368.499 207.864 365.405 203.319C359.96 195.463 351.658 192.168 348.886 196.778C347.107 199.736 339.94 201.395 337.335 199.456C335.275 197.942 335.261 197.585 337.334 194.328C339.982 190.114 344.671 187.636 351.813 186.779C357.822 186.096 364.001 189.122 368.06 194.913Z" fill="black"/>
<path d="M161.776 107.688C161.771 108.265 159.364 111.892 156.253 115.933C153.279 119.936 149.973 124.68 148.9 126.277C146.818 129.741 136.787 136.597 134.367 136.273C130.669 135.806 130.815 133.104 135.049 125.869C139.563 117.98 143.125 114.89 153.824 109.571C160.477 106.257 161.793 105.957 161.776 107.688Z" fill="black"/>
<path d="M338.425 210.385C344.171 214.679 345.294 217.175 344.704 224.986C344.042 233.105 342.682 233.849 337.851 228.792C336.002 226.933 332.588 224.073 330.191 222.369L325.716 219.375L326.714 225.873C327.361 229.729 327.228 232.795 326.418 233.385C325.261 234.36 320.978 232.754 315.738 229.327C314.683 228.615 312.666 228.173 311.227 228.291C309.872 228.456 308.4 228.438 308.059 228.246C307.037 227.668 309.714 223.597 311.102 223.566C311.822 223.507 314.029 220.217 316.946 214.419L321.71 205.36L324.036 207.373C325.904 209.01 326.434 209.077 326.583 207.881C326.797 206.955 327.732 205.971 328.745 205.613C330.688 204.849 331.284 205.186 338.425 210.385Z" fill="black"/>
<path d="M193.7 133.924C194.671 136.101 191.43 138.456 187.165 138.721C184.751 138.752 181.917 137.965 178.768 136.185C173.065 132.963 167.123 131.466 165.142 132.672C164.195 133.3 163.125 135.836 162.3 139.673C161.098 145.274 160.785 145.795 158.621 146.549C157.333 146.984 155.124 148.76 153.721 150.525C147.85 157.442 145.793 155.931 147.447 146.166C149.106 135.822 150.684 132.062 154.271 129.32C158.479 126.116 170.121 124.205 176.319 125.846C183.046 127.555 192.827 132.151 193.7 133.924Z" fill="black"/>
<path d="M105.324 148.984C110.533 153.789 109.17 156.624 101.534 156.613C98.6228 156.713 96.1949 156.387 96.0439 156.07C96.0303 155.713 96.7534 153.562 97.784 151.47C99.9884 146.667 102.016 145.951 105.324 148.984Z" fill="black"/>
<path d="M100.793 175.24C100.866 176.444 92.8051 182.461 91.9548 181.98C90.5095 181.164 90.5378 178.275 91.8937 176.02C93.9274 172.638 100.84 172.13 100.793 175.24Z" fill="black"/>
<path d="M110.743 206.49C113.385 209.494 115.848 211.468 117.93 212.179C120.267 213.034 121.014 213.689 120.728 214.923C120.417 216.958 115.021 218.911 111.912 218.201C110.734 217.884 106.567 218.554 102.584 219.676C95.9062 221.486 95.3897 221.776 93.9878 225.055C92.1626 229.607 85.4563 234.309 83.6799 232.142C81.3791 229.329 78.8183 223.346 78.2235 219.403C77.4642 214.787 78.6379 212.077 81.3599 212.103C82.3871 212.102 84.0603 210.837 85.2227 209.284C86.385 207.73 89.0503 204.816 91.1411 202.857C94.1662 199.914 95.6112 199.218 98.7259 199.35C103.588 199.422 105.834 200.807 110.743 206.49Z" fill="black"/>
<path d="M268.406 297.018C268.555 300.941 264.912 305.861 258.618 310.447C254.429 313.43 253.821 314.25 253.661 316.602C253.523 320.246 251.614 321.144 248.725 318.93C244.513 315.503 237.213 321.382 236.25 328.863C235.972 331.032 235.502 331.813 234.024 332.374C232.546 332.935 232.422 333.33 233.268 334.389C235.398 337.105 231.981 339.943 224.034 341.966C219.829 343.079 216.107 343.768 215.767 343.575C215.341 343.335 212.915 344.523 210.314 346.193C207.797 347.912 205.13 349.312 204.41 349.371C203.828 349.391 201.888 351.668 200.27 354.359C198.651 357.05 195.928 360.629 194.354 362.299C192.192 364.566 191.474 366.138 191.086 369.059C190.725 372.694 190.673 372.781 187.86 373.285C185.819 373.644 184.63 374.484 184.292 375.805C183.673 377.781 179.932 378.692 179.452 377.024C179.353 376.62 177.349 375.022 174.847 373.492C172.431 372.01 167.944 368.66 164.819 366.08C161.491 363.269 156.913 360.45 153.862 359.075C148.9 357.084 136.44 355.045 130.65 355.379C126.247 355.682 112.018 352.411 108.187 350.246C105.633 348.803 103.786 346.944 102.748 344.497C100.753 340.229 102.273 337.133 108.795 331.978C111.193 330.077 113.734 327.558 114.413 326.43C115.875 323.999 115.548 324.163 131.32 322.026C144.245 320.257 154.095 317.914 158.881 315.268C160.894 314.196 163.57 313.73 165.14 314.152C166.678 314.44 171.958 313.817 176.797 312.598C183.593 310.971 185.966 309.869 187.115 307.96C188.89 305.008 189.871 304.515 194.136 304.25C196.02 304.152 197.721 303.601 198.086 302.993C198.974 301.517 213.253 294.465 214.274 295.042C214.785 295.331 215.439 295.003 215.857 294.308C216.274 293.614 219.321 291.962 222.793 290.551C228.396 288.251 229.116 288.192 231.186 290.06C233.204 292.015 233.479 291.937 234.046 290.047C234.54 288.466 235.194 288.137 237.021 288.704C238.284 289.069 240.503 289.742 241.936 290.203C243.455 290.712 246.726 290.583 249.336 289.848C253.351 288.86 254.857 289.013 259.407 291.119C262.321 292.533 265.561 293.782 266.536 293.868C267.819 294.011 268.324 294.878 268.406 297.018Z" fill="black"/>
<path d="M131.721 251.691C132.697 256.896 130.101 257.988 117.64 257.462C104.819 256.965 97.6491 258.264 91.0657 262.571C88.6532 264.117 85.6062 265.769 84.3506 266.339C81.9438 267.305 81.9438 267.305 81.4943 264.259C80.8336 260.047 84.085 255.02 88.5193 253.338C90.4096 252.661 93.3522 251.183 94.8689 250.178C100.485 246.721 107.504 245.103 112.617 245.898C115.438 246.329 119.613 246.594 121.858 246.466C126.929 246.191 131.068 248.414 131.721 251.691Z" fill="black"/>
<path d="M116.682 280.833C115.95 285.653 112.214 289.588 104.94 293.152C102.463 294.427 98.9668 296.637 97.275 298.123C95.152 299.947 93.5373 300.546 92.1564 299.998C89.82 299.143 85.7363 293.23 83.8187 288.077L82.5513 284.686L87.2478 280.48C95.8636 272.79 103.462 271.153 112.853 275.065C117.337 276.901 117.337 276.901 116.682 280.833Z" fill="black"/>
<path d="M221.328 387.692C221.639 389.264 221.891 391.502 221.827 392.747C221.772 394.927 221.857 394.975 224.691 394.249C229.431 393.202 228.368 396.676 221.785 404.016C220.399 405.561 220.259 412.817 221.545 414.475C221.985 415.073 223.42 415.534 224.585 415.494C226.471 415.396 227.271 415.964 228.958 418.664C230.711 421.634 231.511 422.202 236.005 423.461C238.789 424.336 241.109 425.414 241.274 426.089C241.669 427.71 236.164 433.447 229.864 438.037C227.052 440.056 224.442 442.307 224.076 442.915C223.031 444.653 221.995 443.718 220.935 439.976C220.389 438.037 220.425 436.079 221.046 435.615C221.72 435.064 221.476 433.762 220.223 432.239C217.92 429.424 218.762 427.455 222.696 426.418C224.791 425.972 225.569 425.248 225.515 423.82C225.617 422.131 225.001 422.016 220.55 423.343L215.379 424.728L210.121 420.942C204.523 416.963 191.577 403.942 188.098 398.717C186.307 396.191 186.279 395.477 187.96 393.632C189.051 392.386 190.083 390.292 190.251 388.873C190.425 386.876 191.242 385.707 193.296 384.19C195.781 382.335 196.535 382.412 199.687 384.193C203.18 386.167 203.455 386.09 204.814 383.831C207.061 380.094 210.904 379.589 216.239 382.487C219.785 384.374 220.854 385.444 221.328 387.692Z" fill="black"/>
<path d="M205.801 449.682C205.9 450.087 208.347 452.286 211.378 454.465C216.501 458.293 216.771 458.794 217.979 464.953C219.069 470.929 222.359 479.895 226.479 488.05C227.354 489.825 228.865 493.01 229.943 495.017C231.054 497.16 231.633 499.235 231.372 499.67C231.11 500.104 228.429 499.055 225.36 497.32C219.477 493.995 216.188 490.156 216.715 487.191C217.059 485.289 211.503 476.672 208.86 475.179C207.752 474.552 206.68 471.966 206.183 468.423C205.401 462.505 203.284 458.046 200.471 456.456C198.595 455.396 199.356 451.282 201.882 448.981C203.334 447.705 205.32 448.012 205.801 449.682Z" fill="black"/>
</g>
<defs>
<clipPath id="clip0">
<rect width="486" height="498" fill="white"/>
</clipPath>
</defs>
</svg>
